HIERARCHY
ROOT Hips
{
	OFFSET 0.000000 0.000000 0.000000
	CHANNELS 6 Xposition Yposition Zposition Xrotation Yrotation Zrotation
	JOINT LeftUpLeg_virtual
	{
		OFFSET 0.000000 0.000000 0.000000
		CHANNELS 3 Xrotation Yrotation Zrotation
		JOINT LeftUpLeg
		{
			OFFSET 10.205400 -3.823500 0.155100
			CHANNELS 3 Xrotation Yrotation Zrotation
			JOINT LeftLeg
			{
				OFFSET 0.708757 -12.982077 0.567790
				CHANNELS 3 Xrotation Yrotation Zrotation
				JOINT LeftFoot
				{
					OFFSET -0.708756 -10.717838 -2.184338
					CHANNELS 3 Xrotation Yrotation Zrotation
					JOINT LeftToeBase
					{
						OFFSET 0.108149 -7.191104 7.560241
						CHANNELS 3 Xrotation Yrotation Zrotation
						JOINT LeftToe_End
						{
							OFFSET 0.070230 0.081724 4.490308
							CHANNELS 3 Xrotation Yrotation Zrotation
							End Site
							{
								OFFSET 0 0 0
							}
						}
					}
				}
			}
		}
	}
	JOINT RightUpLeg_virtual
	{
		OFFSET 0.000000 0.000000 0.000000
		CHANNELS 3 Xrotation Yrotation Zrotation
		JOINT RightUpLeg
		{
			OFFSET -10.205400 -3.823500 0.005500
			CHANNELS 3 Xrotation Yrotation Zrotation
			JOINT RightLeg
			{
				OFFSET -0.708756 -12.982134 0.610632
				CHANNELS 3 Xrotation Yrotation Zrotation
				JOINT RightFoot
				{
					OFFSET 0.708754 -10.717769 -1.945823
					CHANNELS 3 Xrotation Yrotation Zrotation
					JOINT RightToeBase
					{
						OFFSET -0.108140 -7.191069 7.372968
						CHANNELS 3 Xrotation Yrotation Zrotation
						JOINT RightToe_End
						{
							OFFSET -0.070227 0.081735 4.479403
							CHANNELS 3 Xrotation Yrotation Zrotation
							End Site
							{
								OFFSET 0 0 0
							}
						}
					}
				}
			}
		}
	}
	JOINT Spine_virtual
	{
		OFFSET 0.000000 0.000000 0.000000
		CHANNELS 3 Xrotation Yrotation Zrotation
		JOINT Spine
		{
			OFFSET 0.000000 6.876099 0.125700
			CHANNELS 3 Xrotation Yrotation Zrotation
			JOINT Spine1
			{
				OFFSET 0.000000 5.730043 0.104720
				CHANNELS 3 Xrotation Yrotation Zrotation
				JOINT Spine1_split
				{
					OFFSET 0.000000 5.730043 0.104720
					CHANNELS 3 Xrotation Yrotation Zrotation
					JOINT Spine2
					{
						OFFSET 0.000000 5.730043 0.104720
						CHANNELS 3 Xrotation Yrotation Zrotation
						JOINT Neck_virtual
						{
							OFFSET 0.000000 0.000000 0.000000
							CHANNELS 3 Xrotation Yrotation Zrotation
							JOINT Neck
							{
								OFFSET 0.000000 10.314075 0.188496
								CHANNELS 3 Xrotation Yrotation Zrotation
								JOINT Head
								{
									OFFSET 0.000000 7.643700 -2.377400
									CHANNELS 3 Xrotation Yrotation Zrotation
									JOINT HeadTop_End
									{
										OFFSET 0.000000 43.788605 -13.619600
										CHANNELS 3 Xrotation Yrotation Zrotation
										End Site
										{
											OFFSET 0 0 0
										}
									}
								}
							}
						}
						JOINT LeftShoulder_virtual
						{
							OFFSET 0.000000 0.000000 0.000000
							CHANNELS 3 Xrotation Yrotation Zrotation
							JOINT LeftShoulder
							{
								OFFSET 2.196100 4.412489 0.087492
								CHANNELS 3 Xrotation Yrotation Zrotation
								JOINT LeftShoulder_split
								{
									OFFSET 2.196100 4.412489 0.087492
									CHANNELS 3 Xrotation Yrotation Zrotation
									JOINT LeftArm
									{
										OFFSET 8.771219 -2.981674 -0.026999
										CHANNELS 3 Xrotation Yrotation Zrotation
										JOINT LeftForeArm
										{
											OFFSET 8.512804 0.000000 -0.000000
											CHANNELS 3 Xrotation Yrotation Zrotation
											JOINT LeftHand
											{
												OFFSET 18.484802 0.000000 -0.000000
												CHANNELS 3 Xrotation Yrotation Zrotation
												End Site
												{
													OFFSET 0 0 0
												}
											}
										}
									}
								}
							}
						}
						JOINT RightShoulder_virtual
						{
							OFFSET 0.000000 0.000000 0.000000
							CHANNELS 3 Xrotation Yrotation Zrotation
							JOINT RightShoulder
							{
								OFFSET -2.196100 4.412496 0.070690
								CHANNELS 3 Xrotation Yrotation Zrotation
								JOINT RightShoulder_split
								{
									OFFSET -2.196100 4.412496 0.070690
									CHANNELS 3 Xrotation Yrotation Zrotation
									JOINT RightArm
									{
										OFFSET -8.771282 -2.981682 -0.094208
										CHANNELS 3 Xrotation Yrotation Zrotation
										JOINT RightForeArm
										{
											OFFSET -8.494598 0.000000 0.000000
											CHANNELS 3 Xrotation Yrotation Zrotation
											JOINT RightHand
											{
												OFFSET -18.483803 0.000000 0.000001
												CHANNELS 3 Xrotation Yrotation Zrotation
												End Site
												{
													OFFSET 0 0 0
												}
											}
										}
									}
								}
							}
						}
					}
				}
			}
		}
	}
}
MOTION
Frames: 7
Frame Time: 0.03333333
2.170297 28.735605 -2.425380 0.000000 0.000000 0.000000 -8.808203 9.054900 0.429422 -20.566905 -3.893722 16.550540 60.572529 -5.312023 0.676132 -28.542838 7.092473 -20.186057 -0.342377 -4.215499 1.674676 0.000000 0.000000 0.000000 -9.032779 7.811744 0.521655 -11.317581 -10.854918 -13.922216 56.243633 10.448251 -2.402978 -40.688509 -23.887379 20.016810 3.169645 5.735972 -17.629058 0.000000 0.000000 0.000000 -9.089716 12.493044 0.640041 13.699744 -1.322620 1.084597 6.446230 -3.551409 -0.475784 0.255353 -0.189445 0.163845 0.000000 0.000000 0.000000 8.395522 -1.908005 -0.310759 14.259493 11.437424 3.580890 -36.924392 -7.169351 5.579892 0.000000 0.000000 0.000000 7.011468 -3.144648 -0.462413 3.662431 -1.275115 -8.137846 9.397234 -6.269843 -6.414950 -22.683683 -17.446735 -43.597702 70.241966 -53.514238 62.537260 0.000000 0.000000 0.000000 7.144798 -3.551293 -0.804748 3.483080 -11.714065 18.536454 6.173859 -0.130522 7.503111 -25.774540 20.298460 66.251182 97.011854 85.538359 -101.646356 0.000000 0.000000 0.000000 
2.115864 28.741711 -2.366652 0.000000 0.000000 0.000000 -8.975873 8.845673 0.312935 -20.603382 -3.619491 16.639131 60.648071 -5.324797 0.801320 -28.932770 6.988449 -20.153643 -0.385113 -4.227445 1.798549 0.000000 0.000000 0.000000 -9.195176 7.823412 0.402843 -11.422731 -11.104656 -13.970210 56.307895 10.482489 -2.234984 -40.608914 -23.797907 19.873260 3.670027 5.690253 -17.655428 0.000000 0.000000 0.000000 -9.243763 12.434338 0.487893 14.023992 -1.350058 0.998411 6.514853 -3.403904 -0.174814 0.183986 -0.079775 0.139362 0.000000 0.000000 0.000000 8.247064 -1.785062 -0.189443 13.877082 11.250162 3.663135 -36.900394 -7.946278 5.948565 0.000000 0.000000 0.000000 7.201496 -3.019098 -0.378827 4.008035 -1.021651 -8.122279 9.405357 -4.714575 -7.217218 -23.775740 -18.154585 -46.909077 67.473178 -51.895733 59.928360 0.000000 0.000000 0.000000 7.291238 -3.358469 -0.657550 3.134586 -11.814486 17.748875 5.753641 -2.289112 8.176544 -25.009779 21.244262 65.419627 64.351857 85.558160 -68.979064 0.000000 0.000000 0.000000 
2.085272 28.775166 -2.286440 0.000000 0.000000 0.000000 -9.210849 8.747997 0.170781 -20.735532 -3.402533 16.613298 61.022098 -5.256881 1.149389 -29.181256 6.815142 -20.524145 -0.210271 -4.210894 1.917740 0.000000 0.000000 0.000000 -9.400137 7.913132 0.240186 -11.317297 -11.509459 -13.910843 56.181257 10.575897 -2.150972 -40.313832 -23.648014 20.018957 3.755880 5.691230 -17.583931 0.000000 0.000000 0.000000 -9.485798 12.346836 0.177074 14.486283 -1.412242 0.695952 6.682341 -3.103100 0.112396 0.130661 -0.113301 0.021615 0.000000 0.000000 0.000000 8.119415 -1.492593 -0.105929 13.138505 10.947719 3.760094 -36.548076 -9.756325 6.213719 0.000000 0.000000 0.000000 7.406912 -2.763255 -0.338929 4.075441 -0.877379 -7.794107 8.748028 -3.769922 -6.396554 -23.520784 -18.928845 -49.871077 62.519146 -51.101303 55.650609 0.000000 0.000000 0.000000 7.553673 -2.981471 -0.479438 2.763004 -11.439417 16.480936 3.726750 -2.968591 7.634049 -22.848605 22.052056 64.915600 37.286433 83.493981 -42.168840 0.000000 0.000000 0.000000 
2.087244 28.845930 -2.203104 0.000000 0.000000 0.000000 -9.474777 8.900977 0.106141 -20.788698 -3.282635 16.361993 61.310155 -4.999997 1.641457 -29.193871 6.650211 -21.031344 -0.052756 -4.175173 2.033161 0.000000 0.000000 0.000000 -9.549933 8.069135 0.125684 -10.840700 -12.009307 -13.708035 55.852892 10.639125 -2.170477 -40.129455 -23.448987 20.055406 3.534698 5.724333 -17.390987 0.000000 0.000000 0.000000 -9.798005 12.346235 -0.168996 14.960097 -1.566054 0.238732 6.864500 -2.709834 0.333780 0.131911 -0.274210 -0.034222 0.000000 0.000000 0.000000 8.036232 -1.097621 -0.058568 12.246508 10.532831 3.810170 -35.757072 -12.226594 6.197931 0.000000 0.000000 0.000000 7.526839 -2.405305 -0.308443 3.880662 -0.660377 -6.822690 7.985264 -3.620805 -4.387836 -21.876420 -20.057035 -51.185748 57.232436 -51.895791 51.313688 0.000000 0.000000 0.000000 7.829501 -2.517629 -0.322584 2.461708 -10.676780 14.757898 1.499394 -2.312694 6.451516 -18.810010 22.754364 63.913912 31.443814 82.066991 -36.411667 0.000000 0.000000 0.000000 
2.114904 28.979193 -2.122343 0.000000 0.000000 0.000000 -9.749710 9.263763 0.177511 -20.595901 -3.256177 15.806036 61.127201 -4.547327 2.187283 -28.851013 6.568357 -21.456380 -0.069824 -4.127979 2.128153 0.000000 0.000000 0.000000 -9.643403 8.304365 0.143516 -9.986744 -12.530697 -13.394634 55.241156 10.628843 -2.299031 -40.123670 -23.213233 19.780798 3.261625 5.759116 -17.092586 0.000000 0.000000 0.000000 -10.154435 12.452691 -0.431505 15.313745 -1.908734 -0.278175 6.958808 -2.291143 0.453672 0.118573 -0.523516 -0.020295 0.000000 0.000000 0.000000 8.076420 -0.675579 -0.033062 11.522513 10.045255 3.782419 -34.491724 -14.822190 5.752784 0.000000 0.000000 0.000000 7.524743 -2.003089 -0.257075 3.536342 -0.166713 -5.119862 7.244596 -3.270423 -2.891221 -18.427849 -21.783930 -49.894846 52.331161 -54.828630 47.573517 0.000000 0.000000 0.000000 8.051218 -2.072251 -0.189138 2.251130 -9.653355 12.634755 -0.231452 -1.156234 4.930964 -12.619207 23.558552 61.432648 33.855984 82.063452 -38.506933 0.000000 0.000000 0.000000 
2.153440 29.186514 -2.045393 0.000000 0.000000 0.000000 -9.974882 9.689086 0.430942 -20.032810 -3.291367 14.958695 60.237071 -3.940066 2.687412 -28.259689 6.587760 -21.535448 -0.177854 -4.084027 2.143045 0.000000 0.000000 0.000000 -9.696839 8.637727 0.336556 -8.964559 -13.011245 -13.072072 54.359710 10.595217 -2.478779 -40.027880 -22.959587 19.412125 3.013063 5.798605 -16.734781 0.000000 0.000000 0.000000 -10.451526 12.658891 -0.478530 15.383948 -2.489933 -0.742812 6.925548 -1.911908 0.499698 0.077168 -0.741088 0.012662 0.000000 0.000000 0.000000 8.193614 -0.270401 0.006277 11.143422 9.534507 3.684838 -32.809749 -17.297669 4.693645 0.000000 0.000000 0.000000 7.412295 -1.597881 -0.134249 3.189058 0.513091 -2.795305 6.865776 -3.213054 -2.171854 -12.843670 -23.735486 -45.224042 47.860146 -59.648718 44.276889 0.000000 0.000000 0.000000 8.101838 -1.715533 -0.090523 2.126315 -8.487847 10.259888 -1.238462 0.070608 3.320566 -4.778505 23.745566 56.390096 35.788456 82.327958 -39.759679 0.000000 0.000000 0.000000 
2.210081 29.454750 -1.976994 0.000000 0.000000 0.000000 -10.155539 10.005256 0.807016 -19.172008 -3.338212 14.032213 58.760063 -3.292027 3.061294 -27.463832 6.634510 -21.252499 -0.246684 -4.050064 2.057571 0.000000 0.000000 0.000000 -9.749824 8.980132 0.681445 -7.921703 -13.429521 -12.810363 53.152020 10.617363 -2.726722 -39.668567 -22.709633 19.310125 2.685873 5.879591 -16.405722 0.000000 0.000000 0.000000 -10.658092 12.979899 -0.309029 15.139136 -3.284211 -1.095314 6.823893 -1.606107 0.484577 0.067658 -0.758470 0.081597 0.000000 0.000000 0.000000 8.324848 0.056845 0.119164 11.229084 8.924974 3.581939 -31.006842 -19.596345 3.044062 0.000000 0.000000 0.000000 7.268521 -1.225563 0.017172 3.084866 1.158032 -0.070440 7.049121 -4.596879 -1.820350 -4.958446 -24.817660 -37.167550 43.537552 -65.181069 41.003480 0.000000 0.000000 0.000000 7.938557 -1.447035 0.032064 1.970312 -7.137516 7.880718 -1.242917 0.933019 1.921835 2.747537 22.552352 49.308556 27.806665 81.436038 -31.067156 0.000000 0.000000 0.000000 
